<?xml version="1.0" encoding="UTF-8" standalone="no"?>
<!-- Created with Inkscape (http://www.inkscape.org/) -->

<svg
   xmlns:dc="http://purl.org/dc/elements/1.1/"
   xmlns:cc="http://creativecommons.org/ns#"
   xmlns:rdf="http://www.w3.org/1999/02/22-rdf-syntax-ns#"
   xmlns:svg="http://www.w3.org/2000/svg"
   xmlns="http://www.w3.org/2000/svg"
   xmlns:sodipodi="http://sodipodi.sourceforge.net/DTD/sodipodi-0.dtd"
   xmlns:inkscape="http://www.inkscape.org/namespaces/inkscape"
   width="32"
   height="32"
   viewBox="0 0 32 32.000001"
   id="svg2"
   version="1.1"
   inkscape:version="0.91 r13725"
   sodipodi:docname="checkbox_style.svg">
  <defs
     id="defs4" />
  <sodipodi:namedview
     id="base"
     pagecolor="#ffffff"
     bordercolor="#666666"
     borderopacity="1.0"
     inkscape:pageopacity="0.0"
     inkscape:pageshadow="2"
     inkscape:zoom="22.4"
     inkscape:cx="19.996679"
     inkscape:cy="14.951101"
     inkscape:document-units="px"
     inkscape:current-layer="layer1"
     showgrid="false"
     units="px"
     inkscape:showpageshadow="false"
     inkscape:window-width="1920"
     inkscape:window-height="1028"
     inkscape:window-x="-8"
     inkscape:window-y="-8"
     inkscape:window-maximized="1" />
  <metadata
     id="metadata7">
    <rdf:RDF>
      <cc:Work
         rdf:about="">
        <dc:format>image/svg+xml</dc:format>
        <dc:type
           rdf:resource="http://purl.org/dc/dcmitype/StillImage" />
        <dc:title></dc:title>
      </cc:Work>
    </rdf:RDF>
  </metadata>
  <g
     inkscape:label="Layer 1"
     inkscape:groupmode="layer"
     id="layer1"
     transform="translate(0,-1020.3622)">
    <path
       id="path4704"
       d="m 23.549875,1021.3622 -14.878268,0 C 4.4870941,1021.3622 1,1024.8505 1,1028.8041 l 0,15.1162 c 0,4.1861 3.4870941,7.4419 7.439134,7.4419 l 15.110741,0 c 4.184513,0 7.439134,-3.4883 7.439134,-7.4419 l 0,-15.1162 c 0.232473,-3.9536 -3.254621,-7.4419 -7.439134,-7.4419 z m 2.324729,12.093 -10.926228,10.9302 c -0.232473,0.2326 -0.697418,0.2326 -0.697418,0 l -1.627311,-1.6279 c -0.232474,-0.2325 -0.697419,-0.6976 -0.697419,-0.6976 l -3.719567,-4.1861 c 0,0 -0.2324729,-0.2326 -0.2324729,-0.4651 0,-0.2326 0,-0.2326 0.2324729,-0.4651 l 1.6273106,-1.3953 c 0,0 0.2324724,-0.2326 0.4649454,-0.2326 0.232473,0 0.232473,0 0.464947,0.2326 l 3.719567,3.7209 c 0.232472,0.2325 0.464945,0.2325 0.697418,0 l 8.369026,-8.3722 c 0.232473,-0.2325 0.464946,-0.2325 0.697418,0 l 1.627311,1.628 c 0.232473,0.2325 0.232473,0.6977 0,0.9302 z"
       inkscape:connector-curvature="0"
       style="fill:#0071bc" />
    <g
       id="g4687"
       transform="matrix(0.02929688,0,0,0.03114644,0,1019.8887)">
      <path
         id="path4689"
         d="m 256.004,198 c -31.981,0 -58,26.023 -58,58 0,31.984 26.019,58 58,58 31.98,0 58,-26.016 58,-58 0,-31.977 -26.02,-58 -58,-58 z"
         class="st0"
         inkscape:connector-curvature="0"
         style="fill:#374149" />
      <path
         id="path4691"
         d="m 487.027,197.641 -42.203,-4.234 c -9.808,-0.985 -18.21,-7.172 -22.43,-16.086 -4.312,-9.11 -9.351,-17.812 -15.039,-26.023 -5.625,-8.125 -6.801,-18.508 -2.742,-27.508 L 422.054,85.111 C 427.91,72.118 422.972,56.798 410.628,49.673 L 357.37,18.923 c -12.344,-7.125 -28.078,-3.742 -36.398,7.828 l -24.516,34.078 c -5.738,7.977 -15.195,12.641 -24.984,11.805 -5.102,-0.438 -10.258,-0.664 -15.469,-0.664 -5.215,0 -10.375,0.226 -15.473,0.664 -9.793,0.836 -19.246,-3.828 -24.988,-11.805 L 191.027,26.75 c -8.32,-11.57 -24.054,-14.953 -36.398,-7.828 l -53.258,30.75 C 89.031,56.797 84.094,72.117 89.95,85.11 l 17.437,38.679 c 4.059,9 2.883,19.383 -2.738,27.508 -5.692,8.211 -10.727,16.914 -15.039,26.023 -4.219,8.914 -12.622,15.102 -22.43,16.086 L 24.977,197.64 C 10.797,199.071 0,211 0,225.25 l 0,61.5 c 0,14.25 10.797,26.188 24.977,27.61 l 42.203,4.234 c 9.808,0.984 18.21,7.172 22.43,16.086 4.312,9.11 9.347,17.813 15.039,26.031 5.621,8.118 6.797,18.5 2.738,27.508 l -17.437,38.68 c -5.856,12.984 -0.918,28.305 11.422,35.43 l 53.258,30.75 c 12.344,7.126 28.078,3.742 36.398,-7.828 l 24.516,-34.07 c 5.742,-7.976 15.195,-12.648 24.988,-11.804 5.098,0.43 10.258,0.664 15.473,0.664 5.211,0 10.367,-0.234 15.469,-0.664 9.789,-0.844 19.246,3.828 24.984,11.804 l 24.516,34.07 c 8.32,11.57 24.054,14.954 36.398,7.828 l 53.262,-30.75 c 12.34,-7.125 17.278,-22.446 11.422,-35.43 l -17.438,-38.68 c -4.058,-9.008 -2.882,-19.39 2.738,-27.508 5.692,-8.218 10.727,-16.922 15.039,-26.031 4.219,-8.914 12.622,-15.102 22.43,-16.086 l 42.203,-4.234 C 501.207,312.938 512,301 512,286.75 l 0,-61.5 C 512,211 501.207,199.071 487.027,197.641 Z M 346.004,256 c 0,49.629 -40.375,90 -90,90 -49.625,0 -90,-40.371 -90,-90 0,-49.625 40.375,-90 90,-90 49.625,0 90,40.375 90,90 z"
         class="st0"
         inkscape:connector-curvature="0"
         style="fill:#374149" />
    </g>
  </g>
  <style
     id="style4685"
     type="text/css">
	.st0{fill:#374149;}
</style>
</svg>
